{
  "accessors": [
    {
      "bufferView": 2,
      "componentType": 5126,
      "count": 4609,
      "max": [
        0.3330308496952057,
        3.976928234100342,
        0.5451564788818359
      ],
      "min": [
        -0.33333128690719604,
        -1.3457205295562744,
        -0.12104988098144531
      ],
      "type": "VEC3"
    },
    {
      "bufferView": 2,
      "byteOffset": 55308,
      "componentType": 5126,
      "count": 4609,
      "max": [
        1.0,
        1.0,
        1.0
      ],
      "min": [
        -1.0,
        -1.0,
        -1.0
      ],
      "type": "VEC3"
    },
    {
      "bufferView": 3,
      "componentType": 5126,
      "count": 4609,
      "max": [
        1.0,
        1.0,
        1.0,
        1.0
      ],
      "min": [
        -1.0,
        -1.0,
        -1.0,
        1.0
      ],
      "type": "VEC4"
    },
    {
      "bufferView": 1,
      "componentType": 5126,
      "count": 4609,
      "max": [
        0.997162938117981,
        0.9954278469085693
      ],
      "min": [
        0.0028130863793194294,
        0.002816397463902831
      ],
      "type": "VEC2"
    },
    {
      "bufferView": 0,
      "componentType": 5125,
      "count": 14238,
      "type": "SCALAR"
    },
    {
      "bufferView": 2,
      "byteOffset": 110616,
      "componentType": 5126,
      "count": 142,
      "max": [
        0.10291576385498047,
        3.8260254859924316,
        0.6641654968261719
      ],
      "min": [
        -0.10291258245706558,
        2.3668580055236816,
        0.5323753356933594
      ],
      "type": "VEC3"
    },
    {
      "bufferView": 2,
      "byteOffset": 112320,
      "componentType": 5126,
      "count": 142,
      "max": [
        1.0,
        0.9709216952323914,
        1.0
      ],
      "min": [
        -1.0,
        -1.0,
        -1.0
      ],
      "type": "VEC3"
    },
    {
      "bufferView": 3,
      "byteOffset": 73744,
      "componentType": 5126,
      "count": 142,
      "max": [
        0.9788086414337158,
        0.3714181184768677,
        0.997384250164032,
        1.0
      ],
      "min": [
        -1.0,
        -1.0,
        -0.9973836541175842,
        1.0
      ],
      "type": "VEC4"
    },
    {
      "bufferView": 1,
      "byteOffset": 36872,
      "componentType": 5126,
      "count": 142,
      "max": [
        0.9500932693481445,
        0.908109724521637
      ],
      "min": [
        0.42212873697280884,
        0.0028116204775869846
      ],
      "type": "VEC2"
    },
    {
      "bufferView": 0,
      "byteOffset": 56952,
      "componentType": 5125,
      "count": 456,
      "type": "SCALAR"
    },
    {
      "bufferView": 2,
      "byteOffset": 114024,
      "componentType": 5126,
      "count": 212,
      "max": [
        0.11324669420719147,
        -0.668197512626648,
        0.6957244873046875
      ],
      "min": [
        -0.11326010525226593,
        -1.0855472087860107,
        0.5288467407226563
      ],
      "type": "VEC3"
    },
    {
      "bufferView": 2,
      "byteOffset": 116568,
      "componentType": 5126,
      "count": 212,
      "max": [
        1.0,
        1.0,
        0.9999784231185913
      ],
      "min": [
        -1.0,
        -1.0,
        -1.0
      ],
      "type": "VEC3"
    },
    {
      "bufferView": 3,
      "byteOffset": 76016,
      "componentType": 5126,
      "count": 212,
      "max": [
        1.0,
        1.0,
        1.0,
        1.0
      ],
      "min": [
        -1.0,
        -1.0,
        -0.5533916354179382,
        1.0
      ],
      "type": "VEC4"
    },
    {
      "bufferView": 1,
      "byteOffset": 38008,
      "componentType": 5126,
      "count": 212,
      "max": [
        0.9766095280647278,
        0.916931688785553
      ],
      "min": [
        0.0028185017872601748,
        0.002809806726872921
      ],
      "type": "VEC2"
    },
    {
      "bufferView": 0,
      "byteOffset": 58776,
      "componentType": 5125,
      "count": 588,
      "type": "SCALAR"
    },
    {
      "bufferView": 2,
      "byteOffset": 119112,
      "componentType": 5126,
      "count": 324,
      "max": [
        0.33224329352378845,
        4.218413352966309,
        0.5437535047531128
      ],
      "min": [
        -0.3322431445121765,
        3.9856815338134766,
        -0.12073300778865814
      ],
      "type": "VEC3"
    },
    {
      "bufferView": 2,
      "byteOffset": 123000,
      "componentType": 5126,
      "count": 324,
      "max": [
        1.0,
        1.0,
        1.0
      ],
      "min": [
        -1.0,
        -1.0,
        -1.0
      ],
      "type": "VEC3"
    },
    {
      "bufferView": 3,
      "byteOffset": 79408,
      "componentType": 5126,
      "count": 324,
      "max": [
        0.6973246932029724,
        0.7035112380981445,
        0.9571046829223633,
        1.0
      ],
      "min": [
        -0.9569430947303772,
        -1.0,
        -0.9651544690132141,
        1.0
      ],
      "type": "VEC4"
    },
    {
      "bufferView": 1,
      "byteOffset": 39704,
      "componentType": 5126,
      "count": 324,
      "max": [
        0.7848445773124695,
        0.9722270369529724
      ],
      "min": [
        0.02101447805762291,
        0.0028100013732910156
      ],
      "type": "VEC2"
    },
    {
      "bufferView": 0,
      "byteOffset": 61128,
      "componentType": 5125,
      "count": 960,
      "type": "SCALAR"
    },
    {
      "bufferView": 2,
      "byteOffset": 126888,
      "componentType": 5126,
      "count": 2616,
      "max": [
        0.4057124853134155,
        4.260904312133789,
        0.3776380717754364
      ],
      "min": [
        -0.4057124853134155,
        0.49393123388290405,
        -2.269908905029297
      ],
      "type": "VEC3"
    },
    {
      "bufferView": 2,
      "byteOffset": 158280,
      "componentType": 5126,
      "count": 2616,
      "max": [
        1.0,
        1.0,
        1.0
      ],
      "min": [
        -1.0,
        -1.0,
        -1.0
      ],
      "type": "VEC3"
    },
    {
      "bufferView": 3,
      "byteOffset": 84592,
      "componentType": 5126,
      "count": 2616,
      "max": [
        1.0,
        1.0,
        1.0,
        1.0
      ],
      "min": [
        -1.0,
        -0.999999463558197,
        -1.0,
        -1.0
      ],
      "type": "VEC4"
    },
    {
      "bufferView": 1,
      "byteOffset": 42296,
      "componentType": 5126,
      "count": 2616,
      "max": [
        0.9960453510284424,
        0.9556226134300232
      ],
      "min": [
        0.0028152805753052235,
        0.002815335988998413
      ],
      "type": "VEC2"
    },
    {
      "bufferView": 0,
      "byteOffset": 64968,
      "componentType": 5125,
      "count": 10386,
      "type": "SCALAR"
    },
    {
      "bufferView": 2,
      "byteOffset": 189672,
      "componentType": 5126,
      "count": 22,
      "max": [
        0.04019962251186371,
        0.9436553716659546,
        -0.40274879336357117
      ],
      "min": [
        -0.04019962251186371,
        0.667216956615448,
        -0.6803837418556213
      ],
      "type": "VEC3"
    },
    {
      "bufferView": 2,
      "byteOffset": 189936,
      "componentType": 5126,
      "count": 22,
      "max": [
        1.0,
        0.0,
        0.0
      ],
      "min": [
        -1.0,
        -0.7056542038917542,
        -0.7026129961013794
      ],
      "type": "VEC3"
    },
    {
      "bufferView": 3,
      "byteOffset": 126448,
      "componentType": 5126,
      "count": 22,
      "max": [
        0.0,
        0.0,
        1.0,
        1.0
      ],
      "min": [
        -0.700978696346283,
        -0.9999907612800598,
        0.0043135336600244045,
        1.0
      ],
      "type": "VEC4"
    },
    {
      "bufferView": 1,
      "byteOffset": 63224,
      "componentType": 5126,
      "count": 22,
      "max": [
        0.33449769020080566,
        0.036076903343200684
      ],
      "min": [
        0.3012803792953491,
        0.0028232932090759277
      ],
      "type": "VEC2"
    },
    {
      "bufferView": 0,
      "byteOffset": 106512,
      "componentType": 5125,
      "count": 60,
      "type": "SCALAR"
    },
    {
      "bufferView": 2,
      "byteOffset": 190200,
      "componentType": 5126,
      "count": 397,
      "max": [
        0.293194979429245,
        0.811052143573761,
        -0.12790517508983612
      ],
      "min": [
        -0.293194979429245,
        0.6116901636123657,
        -0.37311625480651855
      ],
      "type": "VEC3"
    },
    {
      "bufferView": 2,
      "byteOffset": 194964,
      "componentType": 5126,
      "count": 397,
      "max": [
        1.0,
        1.0,
        1.0
      ],
      "min": [
        -1.0,
        -1.0,
        -1.0
      ],
      "type": "VEC3"
    },
    {
      "bufferView": 3,
      "byteOffset": 126800,
      "componentType": 5126,
      "count": 397,
      "max": [
        1.0,
        0.9196029305458069,
        1.0,
        1.0
      ],
      "min": [
        -1.0,
        -0.9932588934898376,
        -1.0,
        -1.0
      ],
      "type": "VEC4"
    },
    {
      "bufferView": 1,
      "byteOffset": 63400,
      "componentType": 5126,
      "count": 397,
      "max": [
        0.9894583821296692,
        0.29712483286857605
      ],
      "min": [
        0.2733824849128723,
        0.002818166045472026
      ],
      "type": "VEC2"
    },
    {
      "bufferView": 0,
      "byteOffset": 106752,
      "componentType": 5125,
      "count": 1218,
      "type": "SCALAR"
    },
    {
      "bufferView": 2,
      "byteOffset": 199728,
      "componentType": 5126,
      "count": 416,
      "max": [
        0.19708488881587982,
        1.8406932353973389,
        -0.5124371647834778
      ],
      "min": [
        -0.19708488881587982,
        1.6825733184814453,
        -0.7267761826515198
      ],
      "type": "VEC3"
    },
    {
      "bufferView": 2,
      "byteOffset": 204720,
      "componentType": 5126,
      "count": 416,
      "max": [
        1.0,
        1.0,
        1.0
      ],
      "min": [
        -1.0,
        -1.0,
        -1.0
      ],
      "type": "VEC3"
    },
    {
      "bufferView": 3,
      "byteOffset": 133152,
      "componentType": 5126,
      "count": 416,
      "max": [
        1.0,
        1.0,
        1.0,
        1.0
      ],
      "min": [
        -1.0,
        -1.0,
        -1.0,
        -1.0
      ],
      "type": "VEC4"
    },
    {
      "bufferView": 1,
      "byteOffset": 66576,
      "componentType": 5126,
      "count": 416,
      "max": [
        0.9964284896850586,
        0.7890028953552246
      ],
      "min": [
        0.16378696262836456,
        0.002812609076499939
      ],
      "type": "VEC2"
    },
    {
      "bufferView": 0,
      "byteOffset": 111624,
      "componentType": 5125,
      "count": 1032,
      "type": "SCALAR"
    },
    {
      "bufferView": 2,
      "byteOffset": 209712,
      "componentType": 5126,
      "count": 302,
      "max": [
        0.10698826611042023,
        4.20371150970459,
        0.29999345541000366
      ],
      "min": [
        -0.10698826611042023,
        4.11689567565918,
        -0.28555381298065186
      ],
      "type": "VEC3"
    },
    {
      "bufferView": 2,
      "byteOffset": 213336,
      "componentType": 5126,
      "count": 302,
      "max": [
        1.0,
        1.0,
        1.0
      ],
      "min": [
        -1.0,
        -0.02364243008196354,
        -1.0
      ],
      "type": "VEC3"
    },
    {
      "bufferView": 3,
      "byteOffset": 139808,
      "componentType": 5126,
      "count": 302,
      "max": [
        1.0,
        1.0,
        0.4753493070602417,
        1.0
      ],
      "min": [
        -0.023533618077635765,
        -0.9974101781845093,
        -0.5250287055969238,
        1.0
      ],
      "type": "VEC4"
    },
    {
      "bufferView": 1,
      "byteOffset": 69904,
      "componentType": 5126,
      "count": 302,
      "max": [
        0.30886104702949524,
        0.7480152249336243
      ],
      "min": [
        0.20851176977157593,
        0.07041850686073303
      ],
      "type": "VEC2"
    },
    {
      "bufferView": 0,
      "byteOffset": 115752,
      "componentType": 5125,
      "count": 1320,
      "type": "SCALAR"
    },
    {
      "bufferView": 2,
      "byteOffset": 216960,
      "componentType": 5126,
      "count": 780,
      "max": [
        0.43010714650154114,
        3.8703644275665283,
        0.4712257385253906
      ],
      "min": [
        0.2686569094657898,
        -1.0559771060943604,
        0.3392009735107422
      ],
      "type": "VEC3"
    },
    {
      "bufferView": 2,
      "byteOffset": 226320,
      "componentType": 5126,
      "count": 780,
      "max": [
        0.9989281296730042,
        0.995608925819397,
        0.9974247217178345
      ],
      "min": [
        -0.9989650249481201,
        -0.9956086277961731,
        -0.9975082278251648
      ],
      "type": "VEC3"
    },
    {
      "bufferView": 3,
      "byteOffset": 144640,
      "componentType": 5126,
      "count": 780,
      "max": [
        0.9974247217178345,
        0.9870176911354065,
        0.9988868236541748,
        1.0
      ],
      "min": [
        -0.9975080490112305,
        -1.0,
        -0.9989281296730042,
        1.0
      ],
      "type": "VEC4"
    },
    {
      "bufferView": 1,
      "byteOffset": 72320,
      "componentType": 5126,
      "count": 780,
      "max": [
        0.8817487359046936,
        0.5354098677635193
      ],
      "min": [
        0.02595595084130764,
        0.002828359603881836
      ],
      "type": "VEC2"
    },
    {
      "bufferView": 0,
      "byteOffset": 121032,
      "componentType": 5125,
      "count": 3348,
      "type": "SCALAR"
    },
    {
      "bufferView": 2,
      "byteOffset": 235680,
      "componentType": 5126,
      "count": 232,
      "max": [
        0.049757540225982666,
        2.4417333602905273,
        -0.29439276456832886
      ],
      "min": [
        -0.049757540225982666,
        2.1285924911499023,
        -0.8502424359321594
      ],
      "type": "VEC3"
    },
    {
      "bufferView": 2,
      "byteOffset": 238464,
      "componentType": 5126,
      "count": 232,
      "max": [
        1.0,
        0.9999369978904724,
        0.910819947719574
      ],
      "min": [
        -1.0,
        -0.9993114471435547,
        -0.998458206653595
      ],
      "type": "VEC3"
    },
    {
      "bufferView": 3,
      "byteOffset": 157120,
      "componentType": 5126,
      "count": 232,
      "max": [
        1.0,
        0.9315171241760254,
        0.9993112087249756,
        1.0
      ],
      "min": [
        -1.0,
        -0.998458206653595,
        -1.0,
        -1.0
      ],
      "type": "VEC4"
    },
    {
      "bufferView": 1,
      "byteOffset": 78560,
      "componentType": 5126,
      "count": 232,
      "max": [
        0.9305627942085266,
        0.6187690496444702
      ],
      "min": [
        0.1646191030740738,
        0.0031993575394153595
      ],
      "type": "VEC2"
    },
    {
      "bufferView": 0,
      "byteOffset": 134424,
      "componentType": 5125,
      "count": 774,
      "type": "SCALAR"
    },
    {
      "bufferView": 2,
      "byteOffset": 241248,
      "componentType": 5126,
      "count": 734,
      "max": [
        0.2688472270965576,
        1.6008734703063965,
        -0.01253892108798027
      ],
      "min": [
        -0.2688472270965576,
        1.013061761856079,
        -3.55822491645813
      ],
      "type": "VEC3"
    },
    {
      "bufferView": 2,
      "byteOffset": 250056,
      "componentType": 5126,
      "count": 734,
      "max": [
        0.9997294545173645,
        1.0,
        1.0
      ],
      "min": [
        -0.9997294545173645,
        -1.0,
        -0.9982650279998779
      ],
      "type": "VEC3"
    },
    {
      "bufferView": 3,
      "byteOffset": 160832,
      "componentType": 5126,
      "count": 734,
      "max": [
        1.0,
        1.0,
        1.0,
        1.0
      ],
      "min": [
        -1.0,
        -1.0,
        -1.0,
        1.0
      ],
      "type": "VEC4"
    },
    {
      "bufferView": 1,
      "byteOffset": 80416,
      "componentType": 5126,
      "count": 734,
      "max": [
        0.9946987628936768,
        0.977942168712616
      ],
      "min": [
        0.016865776851773262,
        0.014079004526138306
      ],
      "type": "VEC2"
    },
    {
      "bufferView": 0,
      "byteOffset": 137520,
      "componentType": 5125,
      "count": 2772,
      "type": "SCALAR"
    },
    {
      "bufferView": 2,
      "byteOffset": 258864,
      "componentType": 5126,
      "count": 136,
      "max": [
        0.31136554479599,
        2.4316654205322266,
        -0.09368927031755447
      ],
      "min": [
        -0.31136536598205566,
        1.740381121635437,
        -0.2534363269805908
      ],
      "type": "VEC3"
    },
    {
      "bufferView": 2,
      "byteOffset": 260496,
      "componentType": 5126,
      "count": 136,
      "max": [
        1.0,
        1.0,
        1.0
      ],
      "min": [
        -1.0,
        -1.0,
        -1.0
      ],
      "type": "VEC3"
    },
    {
      "bufferView": 3,
      "byteOffset": 172576,
      "componentType": 5126,
      "count": 136,
      "max": [
        1.0,
        1.0,
        1.0,
        1.0
      ],
      "min": [
        -2.817160202539526e-05,
        -1.0,
        -1.0,
        1.0
      ],
      "type": "VEC4"
    },
    {
      "bufferView": 1,
      "byteOffset": 86288,
      "componentType": 5126,
      "count": 136,
      "max": [
        0.9932383894920349,
        0.44724756479263306
      ],
      "min": [
        0.053300462663173676,
        0.025334902107715607
      ],
      "type": "VEC2"
    },
    {
      "bufferView": 0,
      "byteOffset": 148608,
      "componentType": 5125,
      "count": 384,
      "type": "SCALAR"
    },
    {
      "bufferView": 2,
      "byteOffset": 262128,
      "componentType": 5126,
      "count": 222,
      "max": [
        0.21504968404769897,
        1.6022348403930664,
        -3.531106472015381
      ],
      "min": [
        -0.21504968404769897,
        0.9729422926902771,
        -3.622056245803833
      ],
      "type": "VEC3"
    },
    {
      "bufferView": 2,
      "byteOffset": 264792,
      "componentType": 5126,
      "count": 222,
      "max": [
        1.0,
        1.0,
        0.9998407363891602
      ],
      "min": [
        -1.0,
        -1.0,
        -1.0
      ],
      "type": "VEC3"
    },
    {
      "bufferView": 3,
      "byteOffset": 174752,
      "componentType": 5126,
      "count": 222,
      "max": [
        0.15845414996147156,
        1.0,
        1.0,
        1.0
      ],
      "min": [
        -1.0,
        -0.9998407363891602,
        -1.0,
        1.0
      ],
      "type": "VEC4"
    },
    {
      "bufferView": 1,
      "byteOffset": 87376,
      "componentType": 5126,
      "count": 222,
      "max": [
        0.9968542456626892,
        0.9883677959442139
      ],
      "min": [
        0.002810158533975482,
        0.002816378604620695
      ],
      "type": "VEC2"
    },
    {
      "bufferView": 0,
      "byteOffset": 150144,
      "componentType": 5125,
      "count": 534,
      "type": "SCALAR"
    },
    {
      "bufferView": 2,
      "byteOffset": 267456,
      "componentType": 5126,
      "count": 100,
      "max": [
        0.1585906445980072,
        1.0119342803955078,
        -2.456150770187378
      ],
      "min": [
        -0.1585906445980072,
        0.9861389994621277,
        -3.6189186573028564
      ],
      "type": "VEC3"
    },
    {
      "bufferView": 2,
      "byteOffset": 268656,
      "componentType": 5126,
      "count": 100,
      "max": [
        1.0,
        1.0,
        1.0
      ],
      "min": [
        -1.0,
        -1.0,
        -0.9953882098197937
      ],
      "type": "VEC3"
    },
    {
      "bufferView": 3,
      "byteOffset": 178304,
      "componentType": 5126,
      "count": 100,
      "max": [
        0.9953882098197937,
        1.0,
        1.0,
        1.0
      ],
      "min": [
        -1.0,
        -2.1321848180377856e-05,
        -1.0,
        1.0
      ],
      "type": "VEC4"
    },
    {
      "bufferView": 1,
      "byteOffset": 89152,
      "componentType": 5126,
      "count": 100,
      "max": [
        0.9257246851921082,
        0.9796026349067688
      ],
      "min": [
        0.19435706734657288,
        0.2674559950828552
      ],
      "type": "VEC2"
    },
    {
      "bufferView": 0,
      "byteOffset": 152280,
      "componentType": 5125,
      "count": 264,
      "type": "SCALAR"
    },
    {
      "bufferView": 2,
      "byteOffset": 269856,
      "componentType": 5126,
      "count": 100,
      "max": [
        0.15349224209785461,
        1.0119342803955078,
        -0.17177796363830566
      ],
      "min": [
        -0.15349224209785461,
        0.9861389994621277,
        -1.3345458507537842
      ],
      "type": "VEC3"
    },
    {
      "bufferView": 2,
      "byteOffset": 271056,
      "componentType": 5126,
      "count": 100,
      "max": [
        1.0,
        1.0,
        1.0
      ],
      "min": [
        -1.0,
        -1.0,
        -1.0
      ],
      "type": "VEC3"
    },
    {
      "bufferView": 3,
      "byteOffset": 179904,
      "componentType": 5126,
      "count": 100,
      "max": [
        1.0,
        1.0,
        1.0,
        1.0
      ],
      "min": [
        -0.9953879117965698,
        -1.0,
        -1.0,
        1.0
      ],
      "type": "VEC4"
    },
    {
      "bufferView": 1,
      "byteOffset": 89952,
      "componentType": 5126,
      "count": 100,
      "max": [
        0.9505593776702881,
        0.968348503112793
      ],
      "min": [
        0.0028151078149676323,
        0.037427663803100586
      ],
      "type": "VEC2"
    },
    {
      "bufferView": 0,
      "byteOffset": 153336,
      "componentType": 5125,
      "count": 246,
      "type": "SCALAR"
    },
    {
      "bufferView": 2,
      "byteOffset": 272256,
      "componentType": 5126,
      "count": 112,
      "max": [
        0.15255087614059448,
        1.5720469951629639,
        -0.14392799139022827
      ],
      "min": [
        -0.15255087614059448,
        1.0387544631958008,
        -0.3024581968784332
      ],
      "type": "VEC3"
    },
    {
      "bufferView": 2,
      "byteOffset": 273600,
      "componentType": 5126,
      "count": 112,
      "max": [
        0.9930861592292786,
        1.0,
        0.9999844431877136
      ],
      "min": [
        -0.9958351254463196,
        -0.999988317489624,
        -1.0
      ],
      "type": "VEC3"
    },
    {
      "bufferView": 3,
      "byteOffset": 181504,
      "componentType": 5126,
      "count": 112,
      "max": [
        0.9999734163284302,
        0.9999998211860657,
        0.9999996423721313,
        1.0
      ],
      "min": [
        -0.9999979138374329,
        -1.0,
        -1.0,
        1.0
      ],
      "type": "VEC4"
    },
    {
      "bufferView": 1,
      "byteOffset": 90752,
      "componentType": 5126,
      "count": 112,
      "max": [
        0.8087842464447021,
        0.7755557894706726
      ],
      "min": [
        0.0028363466262817383,
        0.0028196503408253193
      ],
      "type": "VEC2"
    },
    {
      "bufferView": 0,
      "byteOffset": 154320,
      "componentType": 5125,
      "count": 288,
      "type": "SCALAR"
    },
    {
      "bufferView": 2,
      "byteOffset": 274944,
      "componentType": 5126,
      "count": 102,
      "max": [
        0.09578518569469452,
        1.8641493320465088,
        -0.911426842212677
      ],
      "min": [
        -0.09578518569469452,
        1.6717182397842407,
        -1.3913905620574951
      ],
      "type": "VEC3"
    },
    {
      "bufferView": 2,
      "byteOffset": 276168,
      "componentType": 5126,
      "count": 102,
      "max": [
        1.0,
        1.0,
        0.9967500567436218
      ],
      "min": [
        -1.0,
        -1.0,
        -0.9988654851913452
      ],
      "type": "VEC3"
    },
    {
      "bufferView": 3,
      "byteOffset": 183296,
      "componentType": 5126,
      "count": 102,
      "max": [
        0.9999945759773254,
        0.9999945759773254,
        0.957905650138855,
        1.0
      ],
      "min": [
        -0.9999945759773254,
        -0.9999946355819702,
        -0.9721724390983582,
        1.0
      ],
      "type": "VEC4"
    },
    {
      "bufferView": 1,
      "byteOffset": 91648,
      "componentType": 5126,
      "count": 102,
      "max": [
        0.9870665669441223,
        0.8319611549377441
      ],
      "min": [
        0.15387651324272156,
        0.19431166350841522
      ],
      "type": "VEC2"
    },
    {
      "bufferView": 0,
      "byteOffset": 155472,
      "componentType": 5125,
      "count": 252,
      "type": "SCALAR"
    },
    {
      "bufferView": 2,
      "byteOffset": 277392,
      "componentType": 5126,
      "count": 642,
      "max": [
        0.1556013822555542,
        1.5425543785095215,
        -0.026297330856323242
      ],
      "min": [
        -0.1568032205104828,
        1.0535838603973389,
        -0.2290329933166504
      ],
      "type": "VEC3"
    },
    {
      "bufferView": 2,
      "byteOffset": 285096,
      "componentType": 5126,
      "count": 642,
      "max": [
        1.0,
        1.0,
        1.0
      ],
      "min": [
        -1.0,
        -1.0,
        -1.0
      ],
      "type": "VEC3"
    },
    {
      "bufferView": 3,
      "byteOffset": 184928,
      "componentType": 5126,
      "count": 642,
      "max": [
        0.9995149970054626,
        1.0,
        0.9999846816062927,
        1.0
      ],
      "min": [
        -0.999068558216095,
        -1.0,
        -0.9999889135360718,
        1.0
      ],
      "type": "VEC4"
    },
    {
      "bufferView": 1,
      "byteOffset": 92464,
      "componentType": 5126,
      "count": 642,
      "max": [
        0.8879397511482239,
        0.8714016675949097
      ],
      "min": [
        0.2606058716773987,
        0.030964845791459084
      ],
      "type": "VEC2"
    },
    {
      "bufferView": 0,
      "byteOffset": 156480,
      "componentType": 5125,
      "count": 2304,
      "type": "SCALAR"
    },
    {
      "bufferView": 2,
      "byteOffset": 292800,
      "componentType": 5126,
      "count": 1132,
      "max": [
        0.6163522005081177,
        2.61533260345459,
        0.6824426651000977
      ],
      "min": [
        -0.3054780960083008,
        1.0595197677612305,
        0.055600814521312714
      ],
      "type": "VEC3"
    },
    {
      "bufferView": 2,
      "byteOffset": 306384,
      "componentType": 5126,
      "count": 1132,
      "max": [
        1.0,
        1.0,
        1.0
      ],
      "min": [
        -1.0,
        -1.0,
        -1.0
      ],
      "type": "VEC3"
    },
    {
      "bufferView": 3,
      "byteOffset": 195200,
      "componentType": 5126,
      "count": 1132,
      "max": [
        1.0,
        1.0,
        1.0,
        1.0
      ],
      "min": [
        -1.0,
        -1.0,
        -1.0,
        1.0
      ],
      "type": "VEC4"
    },
    {
      "bufferView": 1,
      "byteOffset": 97600,
      "componentType": 5126,
      "count": 1132,
      "max": [
        0.9971848726272583,
        0.991635262966156
      ],
      "min": [
        0.002810568315908313,
        0.002816521329805255
      ],
      "type": "VEC2"
    },
    {
      "bufferView": 0,
      "byteOffset": 165696,
      "componentType": 5125,
      "count": 3228,
      "type": "SCALAR"
    },
    {
      "bufferView": 2,
      "byteOffset": 319968,
      "componentType": 5126,
      "count": 4609,
      "max": [
        0.3330308496952057,
        3.976928234100342,
        0.5451564788818359
      ],
      "min": [
        -0.33333128690719604,
        -1.3457205295562744,
        -0.12104988098144531
      ],
      "type": "VEC3"
    },
    {
      "bufferView": 2,
      "byteOffset": 375276,
      "componentType": 5126,
      "count": 4609,
      "max": [
        1.0,
        1.0,
        1.0
      ],
      "min": [
        -1.0,
        -1.0,
        -1.0
      ],
      "type": "VEC3"
    },
    {
      "bufferView": 3,
      "byteOffset": 213312,
      "componentType": 5126,
      "count": 4609,
      "max": [
        1.0,
        1.0,
        1.0,
        1.0
      ],
      "min": [
        -1.0,
        -1.0,
        -1.0,
        1.0
      ],
      "type": "VEC4"
    },
    {
      "bufferView": 1,
      "byteOffset": 106656,
      "componentType": 5126,
      "count": 4609,
      "max": [
        0.997162938117981,
        0.9954278469085693
      ],
      "min": [
        0.0028130863793194294,
        0.002816397463902831
      ],
      "type": "VEC2"
    },
    {
      "bufferView": 0,
      "byteOffset": 178608,
      "componentType": 5125,
      "count": 14238,
      "type": "SCALAR"
    },
    {
      "bufferView": 2,
      "byteOffset": 430584,
      "componentType": 5126,
      "count": 142,
      "max": [
        0.10291576385498047,
        3.8260254859924316,
        0.6641654968261719
      ],
      "min": [
        -0.10291258245706558,
        2.3668580055236816,
        0.5323753356933594
      ],
      "type": "VEC3"
    },
    {
      "bufferView": 2,
      "byteOffset": 432288,
      "componentType": 5126,
      "count": 142,
      "max": [
        1.0,
        0.9709216952323914,
        1.0
      ],
      "min": [
        -1.0,
        -1.0,
        -1.0
      ],
      "type": "VEC3"
    },
    {
      "bufferView": 3,
      "byteOffset": 287056,
      "componentType": 5126,
      "count": 142,
      "max": [
        0.9788086414337158,
        0.3714181184768677,
        0.997384250164032,
        1.0
      ],
      "min": [
        -1.0,
        -1.0,
        -0.9973836541175842,
        1.0
      ],
      "type": "VEC4"
    },
    {
      "bufferView": 1,
      "byteOffset": 143528,
      "componentType": 5126,
      "count": 142,
      "max": [
        0.9500932693481445,
        0.908109724521637
      ],
      "min": [
        0.42212873697280884,
        0.0028116204775869846
      ],
      "type": "VEC2"
    },
    {
      "bufferView": 0,
      "byteOffset": 235560,
      "componentType": 5125,
      "count": 456,
      "type": "SCALAR"
    },
    {
      "bufferView": 2,
      "byteOffset": 433992,
      "componentType": 5126,
      "count": 212,
      "max": [
        0.11324669420719147,
        -0.668197512626648,
        0.6957244873046875
      ],
      "min": [
        -0.11326010525226593,
        -1.0855472087860107,
        0.5288467407226563
      ],
      "type": "VEC3"
    },
    {
      "bufferView": 2,
      "byteOffset": 436536,
      "componentType": 5126,
      "count": 212,
      "max": [
        1.0,
        1.0,
        0.9999784231185913
      ],
      "min": [
        -1.0,
        -1.0,
        -1.0
      ],
      "type": "VEC3"
    },
    {
      "bufferView": 3,
      "byteOffset": 289328,
      "componentType": 5126,
      "count": 212,
      "max": [
        1.0,
        1.0,
        1.0,
        1.0
      ],
      "min": [
        -1.0,
        -1.0,
        -0.5533916354179382,
        1.0
      ],
      "type": "VEC4"
    },
    {
      "bufferView": 1,
      "byteOffset": 144664,
      "componentType": 5126,
      "count": 212,
      "max": [
        0.9766095280647278,
        0.916931688785553
      ],
      "min": [
        0.0028185017872601748,
        0.002809806726872921
      ],
      "type": "VEC2"
    },
    {
      "bufferView": 0,
      "byteOffset": 237384,
      "componentType": 5125,
      "count": 588,
      "type": "SCALAR"
    },
    {
      "bufferView": 2,
      "byteOffset": 439080,
      "componentType": 5126,
      "count": 324,
      "max": [
        0.33224329352378845,
        4.218413352966309,
        0.5437535047531128
      ],
      "min": [
        -0.3322431445121765,
        3.9856815338134766,
        -0.12073300778865814
      ],
      "type": "VEC3"
    },
    {
      "bufferView": 2,
      "byteOffset": 442968,
      "componentType": 5126,
      "count": 324,
      "max": [
        1.0,
        1.0,
        1.0
      ],
      "min": [
        -1.0,
        -1.0,
        -1.0
      ],
      "type": "VEC3"
    },
    {
      "bufferView": 3,
      "byteOffset": 292720,
      "componentType": 5126,
      "count": 324,
      "max": [
        0.6973246932029724,
        0.7035112380981445,
        0.9571046829223633,
        1.0
      ],
      "min": [
        -0.9569430947303772,
        -1.0,
        -0.9651544690132141,
        1.0
      ],
      "type": "VEC4"
    },
    {
      "bufferView": 1,
      "byteOffset": 146360,
      "componentType": 5126,
      "count": 324,
      "max": [
        0.7848445773124695,
        0.9722270369529724
      ],
      "min": [
        0.02101447805762291,
        0.0028100013732910156
      ],
      "type": "VEC2"
    },
    {
      "bufferView": 0,
      "byteOffset": 239736,
      "componentType": 5125,
      "count": 960,
      "type": "SCALAR"
    },
    {
      "bufferView": 2,
      "byteOffset": 446856,
      "componentType": 5126,
      "count": 2616,
      "max": [
        0.4057124853134155,
        4.260904312133789,
        0.3776380717754364
      ],
      "min": [
        -0.4057124853134155,
        0.49393123388290405,
        -2.269908905029297
      ],
      "type": "VEC3"
    },
    {
      "bufferView": 2,
      "byteOffset": 478248,
      "componentType": 5126,
      "count": 2616,
      "max": [
        1.0,
        1.0,
        1.0
      ],
      "min": [
        -1.0,
        -1.0,
        -1.0
      ],
      "type": "VEC3"
    },
    {
      "bufferView": 3,
      "byteOffset": 297904,
      "componentType": 5126,
      "count": 2616,
      "max": [
        1.0,
        1.0,
        1.0,
        1.0
      ],
      "min": [
        -1.0,
        -0.999999463558197,
        -1.0,
        -1.0
      ],
      "type": "VEC4"
    },
    {
      "bufferView": 1,
      "byteOffset": 148952,
      "componentType": 5126,
      "count": 2616,
      "max": [
        0.9960453510284424,
        0.9556226134300232
      ],
      "min": [
        0.0028152805753052235,
        0.002815335988998413
      ],
      "type": "VEC2"
    },
    {
      "bufferView": 0,
      "byteOffset": 243576,
      "componentType": 5125,
      "count": 10386,
      "type": "SCALAR"
    },
    {
      "bufferView": 2,
      "byteOffset": 509640,
      "componentType": 5126,
      "count": 22,
      "max": [
        0.04019962251186371,
        0.9436553716659546,
        -0.40274879336357117
      ],
      "min": [
        -0.04019962251186371,
        0.667216956615448,
        -0.6803837418556213
      ],
      "type": "VEC3"
    },
    {
      "bufferView": 2,
      "byteOffset": 509904,
      "componentType": 5126,
      "count": 22,
      "max": [
        1.0,
        0.0,
        0.0
      ],
      "min": [
        -1.0,
        -0.7056542038917542,
        -0.7026129961013794
      ],
      "type": "VEC3"
    },
    {
      "bufferView": 3,
      "byteOffset": 339760,
      "componentType": 5126,
      "count": 22,
      "max": [
        0.0,
        0.0,
        1.0,
        1.0
      ],
      "min": [
        -0.700978696346283,
        -0.9999907612800598,
        0.0043135336600244045,
        1.0
      ],
      "type": "VEC4"
    },
    {
      "bufferView": 1,
      "byteOffset": 169880,
      "componentType": 5126,
      "count": 22,
      "max": [
        0.33449769020080566,
        0.036076903343200684
      ],
      "min": [
        0.3012803792953491,
        0.0028232932090759277
      ],
      "type": "VEC2"
    },
    {
      "bufferView": 0,
      "byteOffset": 285120,
      "componentType": 5125,
      "count": 60,
      "type": "SCALAR"
    },
    {
      "bufferView": 2,
      "byteOffset": 510168,
      "componentType": 5126,
      "count": 397,
      "max": [
        0.293194979429245,
        0.811052143573761,
        -0.12790517508983612
      ],
      "min": [
        -0.293194979429245,
        0.6116901636123657,
        -0.37311625480651855
      ],
      "type": "VEC3"
    },
    {
      "bufferView": 2,
      "byteOffset": 514932,
      "componentType": 5126,
      "count": 397,
      "max": [
        1.0,
        1.0,
        1.0
      ],
      "min": [
        -1.0,
        -1.0,
        -1.0
      ],
      "type": "VEC3"
    },
    {
      "bufferView": 3,
      "byteOffset": 340112,
      "componentType": 5126,
      "count": 397,
      "max": [
        1.0,
        0.9196029305458069,
        1.0,
        1.0
      ],
      "min": [
        -1.0,
        -0.9932588934898376,
        -1.0,
        -1.0
      ],
      "type": "VEC4"
    },
    {
      "bufferView": 1,
      "byteOffset": 170056,
      "componentType": 5126,
      "count": 397,
      "max": [
        0.9894583821296692,
        0.29712483286857605
      ],
      "min": [
        0.2733824849128723,
        0.002818166045472026
      ],
      "type": "VEC2"
    },
    {
      "bufferView": 0,
      "byteOffset": 285360,
      "componentType": 5125,
      "count": 1218,
      "type": "SCALAR"
    },
    {
      "bufferView": 2,
      "byteOffset": 519696,
      "componentType": 5126,
      "count": 416,
      "max": [
        0.19708488881587982,
        1.8406932353973389,
        -0.5124371647834778
      ],
      "min": [
        -0.19708488881587982,
        1.6825733184814453,
        -0.7267761826515198
      ],
      "type": "VEC3"
    },
    {
      "bufferView": 2,
      "byteOffset": 524688,
      "componentType": 5126,
      "count": 416,
      "max": [
        1.0,
        1.0,
        1.0
      ],
      "min": [
        -1.0,
        -1.0,
        -1.0
      ],
      "type": "VEC3"
    },
    {
      "bufferView": 3,
      "byteOffset": 346464,
      "componentType": 5126,
      "count": 416,
      "max": [
        1.0,
        1.0,
        1.0,
        1.0
      ],
      "min": [
        -1.0,
        -1.0,
        -1.0,
        -1.0
      ],
      "type": "VEC4"
    },
    {
      "bufferView": 1,
      "byteOffset": 173232,
      "componentType": 5126,
      "count": 416,
      "max": [
        0.9964284896850586,
        0.7890028953552246
      ],
      "min": [
        0.16378696262836456,
        0.002812609076499939
      ],
      "type": "VEC2"
    },
    {
      "bufferView": 0,
      "byteOffset": 290232,
      "componentType": 5125,
      "count": 1032,
      "type": "SCALAR"
    },
    {
      "bufferView": 2,
      "byteOffset": 529680,
      "componentType": 5126,
      "count": 302,
      "max": [
        0.10698826611042023,
        4.20371150970459,
        0.29999345541000366
      ],
      "min": [
        -0.10698826611042023,
        4.11689567565918,
        -0.28555381298065186
      ],
      "type": "VEC3"
    },
    {
      "bufferView": 2,
      "byteOffset": 533304,
      "componentType": 5126,
      "count": 302,
      "max": [
        1.0,
        1.0,
        1.0
      ],
      "min": [
        -1.0,
        -0.02364243008196354,
        -1.0
      ],
      "type": "VEC3"
    },
    {
      "bufferView": 3,
      "byteOffset": 353120,
      "componentType": 5126,
      "count": 302,
      "max": [
        1.0,
        1.0,
        0.4753493070602417,
        1.0
      ],
      "min": [
        -0.023533618077635765,
        -0.9974101781845093,
        -0.5250287055969238,
        1.0
      ],
      "type": "VEC4"
    },
    {
      "bufferView": 1,
      "byteOffset": 176560,
      "componentType": 5126,
      "count": 302,
      "max": [
        0.30886104702949524,
        0.7480152249336243
      ],
      "min": [
        0.20851176977157593,
        0.07041850686073303
      ],
      "type": "VEC2"
    },
    {
      "bufferView": 0,
      "byteOffset": 294360,
      "componentType": 5125,
      "count": 1320,
      "type": "SCALAR"
    },
    {
      "bufferView": 2,
      "byteOffset": 536928,
      "componentType": 5126,
      "count": 780,
      "max": [
        0.43010714650154114,
        3.8703644275665283,
        0.4712257385253906
      ],
      "min": [
        0.2686569094657898,
        -1.0559771060943604,
        0.3392009735107422
      ],
      "type": "VEC3"
    },
    {
      "bufferView": 2,
      "byteOffset": 546288,
      "componentType": 5126,
      "count": 780,
      "max": [
        0.9989281296730042,
        0.995608925819397,
        0.9974247217178345
      ],
      "min": [
        -0.9989650249481201,
        -0.9956086277961731,
        -0.9975082278251648
      ],
      "type": "VEC3"
    },
    {
      "bufferView": 3,
      "byteOffset": 357952,
      "componentType": 5126,
      "count": 780,
      "max": [
        0.9974247217178345,
        0.9870176911354065,
        0.9988868236541748,
        1.0
      ],
      "min": [
        -0.9975080490112305,
        -1.0,
        -0.9989281296730042,
        1.0
      ],
      "type": "VEC4"
    },
    {
      "bufferView": 1,
      "byteOffset": 178976,
      "componentType": 5126,
      "count": 780,
      "max": [
        0.8817487359046936,
        0.5354098677635193
      ],
      "min": [
        0.02595595084130764,
        0.002828359603881836
      ],
      "type": "VEC2"
    },
    {
      "bufferView": 0,
      "byteOffset": 299640,
      "componentType": 5125,
      "count": 3348,
      "type": "SCALAR"
    },
    {
      "bufferView": 2,
      "byteOffset": 555648,
      "componentType": 5126,
      "count": 232,
      "max": [
        0.049757540225982666,
        2.4417333602905273,
        -0.29439276456832886
      ],
      "min": [
        -0.049757540225982666,
        2.1285924911499023,
        -0.8502424359321594
      ],
      "type": "VEC3"
    },
    {
      "bufferView": 2,
      "byteOffset": 558432,
      "componentType": 5126,
      "count": 232,
      "max": [
        1.0,
        0.9999369978904724,
        0.910819947719574
      ],
      "min": [
        -1.0,
        -0.9993114471435547,
        -0.998458206653595
      ],
      "type": "VEC3"
    },
    {
      "bufferView": 3,
      "byteOffset": 370432,
      "componentType": 5126,
      "count": 232,
      "max": [
        1.0,
        0.9315171241760254,
        0.9993112087249756,
        1.0
      ],
      "min": [
        -1.0,
        -0.998458206653595,
        -1.0,
        -1.0
      ],
      "type": "VEC4"
    },
    {
      "bufferView": 1,
      "byteOffset": 185216,
      "componentType": 5126,
      "count": 232,
      "max": [
        0.9305627942085266,
        0.6187690496444702
      ],
      "min": [
        0.1646191030740738,
        0.0031993575394153595
      ],
      "type": "VEC2"
    },
    {
      "bufferView": 0,
      "byteOffset": 313032,
      "componentType": 5125,
      "count": 774,
      "type": "SCALAR"
    },
    {
      "bufferView": 2,
      "byteOffset": 561216,
      "componentType": 5126,
      "count": 734,
      "max": [
        0.2688472270965576,
        1.6008734703063965,
        -0.01253892108798027
      ],
      "min": [
        -0.2688472270965576,
        1.013061761856079,
        -3.55822491645813
      ],
      "type": "VEC3"
    },
    {
      "bufferView": 2,
      "byteOffset": 570024,
      "componentType": 5126,
      "count": 734,
      "max": [
        0.9997294545173645,
        1.0,
        1.0
      ],
      "min": [
        -0.9997294545173645,
        -1.0,
        -0.9982650279998779
      ],
      "type": "VEC3"
    },
    {
      "bufferView": 3,
      "byteOffset": 374144,
      "componentType": 5126,
      "count": 734,
      "max": [
        1.0,
        1.0,
        1.0,
        1.0
      ],
      "min": [
        -1.0,
        -1.0,
        -1.0,
        1.0
      ],
      "type": "VEC4"
    },
    {
      "bufferView": 1,
      "byteOffset": 187072,
      "componentType": 5126,
      "count": 734,
      "max": [
        0.9946987628936768,
        0.977942168712616
      ],
      "min": [
        0.016865776851773262,
        0.014079004526138306
      ],
      "type": "VEC2"
    },
    {
      "bufferView": 0,
      "byteOffset": 316128,
      "componentType": 5125,
      "count": 2772,
      "type": "SCALAR"
    },
    {
      "bufferView": 2,
      "byteOffset": 578832,
      "componentType": 5126,
      "count": 136,
      "max": [
        0.31136554479599,
        2.4316654205322266,
        -0.09368927031755447
      ],
      "min": [
        -0.31136536598205566,
        1.740381121635437,
        -0.2534363269805908
      ],
      "type": "VEC3"
    },
    {
      "bufferView": 2,
      "byteOffset": 580464,
      "componentType": 5126,
      "count": 136,
      "max": [
        1.0,
        1.0,
        1.0
      ],
      "min": [
        -1.0,
        -1.0,
        -1.0
      ],
      "type": "VEC3"
    },
    {
      "bufferView": 3,
      "byteOffset": 385888,
      "componentType": 5126,
      "count": 136,
      "max": [
        1.0,
        1.0,
        1.0,
        1.0
      ],
      "min": [
        -2.817160202539526e-05,
        -1.0,
        -1.0,
        1.0
      ],
      "type": "VEC4"
    },
    {
      "bufferView": 1,
      "byteOffset": 192944,
      "componentType": 5126,
      "count": 136,
      "max": [
        0.9932383894920349,
        0.44724756479263306
      ],
      "min": [
        0.053300462663173676,
        0.025334902107715607
      ],
      "type": "VEC2"
    },
    {
      "bufferView": 0,
      "byteOffset": 327216,
      "componentType": 5125,
      "count": 384,
      "type": "SCALAR"
    },
    {
      "bufferView": 2,
      "byteOffset": 582096,
      "componentType": 5126,
      "count": 222,
      "max": [
        0.21504968404769897,
        1.6022348403930664,
        -3.531106472015381
      ],
      "min": [
        -0.21504968404769897,
        0.9729422926902771,
        -3.622056245803833
      ],
      "type": "VEC3"
    },
    {
      "bufferView": 2,
      "byteOffset": 584760,
      "componentType": 5126,
      "count": 222,
      "max": [
        1.0,
        1.0,
        0.9998407363891602
      ],
      "min": [
        -1.0,
        -1.0,
        -1.0
      ],
      "type": "VEC3"
    },
    {
      "bufferView": 3,
      "byteOffset": 388064,
      "componentType": 5126,
      "count": 222,
      "max": [
        0.15845414996147156,
        1.0,
        1.0,
        1.0
      ],
      "min": [
        -1.0,
        -0.9998407363891602,
        -1.0,
        1.0
      ],
      "type": "VEC4"
    },
    {
      "bufferView": 1,
      "byteOffset": 194032,
      "componentType": 5126,
      "count": 222,
      "max": [
        0.9968542456626892,
        0.9883677959442139
      ],
      "min": [
        0.002810158533975482,
        0.002816378604620695
      ],
      "type": "VEC2"
    },
    {
      "bufferView": 0,
      "byteOffset": 328752,
      "componentType": 5125,
      "count": 534,
      "type": "SCALAR"
    },
    {
      "bufferView": 2,
      "byteOffset": 587424,
      "componentType": 5126,
      "count": 100,
      "max": [
        0.1585906445980072,
        1.0119342803955078,
        -2.456150770187378
      ],
      "min": [
        -0.1585906445980072,
        0.9861389994621277,
        -3.6189186573028564
      ],
      "type": "VEC3"
    },
    {
      "bufferView": 2,
      "byteOffset": 588624,
      "componentType": 5126,
      "count": 100,
      "max": [
        1.0,
        1.0,
        1.0
      ],
      "min": [
        -1.0,
        -1.0,
        -0.9953882098197937
      ],
      "type": "VEC3"
    },
    {
      "bufferView": 3,
      "byteOffset": 391616,
      "componentType": 5126,
      "count": 100,
      "max": [
        0.9953882098197937,
        1.0,
        1.0,
        1.0
      ],
      "min": [
        -1.0,
        -2.1321848180377856e-05,
        -1.0,
        1.0
      ],
      "type": "VEC4"
    },
    {
      "bufferView": 1,
      "byteOffset": 195808,
      "componentType": 5126,
      "count": 100,
      "max": [
        0.9257246851921082,
        0.9796026349067688
      ],
      "min": [
        0.19435706734657288,
        0.2674559950828552
      ],
      "type": "VEC2"
    },
    {
      "bufferView": 0,
      "byteOffset": 330888,
      "componentType": 5125,
      "count": 264,
      "type": "SCALAR"
    },
    {
      "bufferView": 2,
      "byteOffset": 589824,
      "componentType": 5126,
      "count": 100,
      "max": [
        0.15349224209785461,
        1.0119342803955078,
        -0.17177796363830566
      ],
      "min": [
        -0.15349224209785461,
        0.9861389994621277,
        -1.3345458507537842
      ],
      "type": "VEC3"
    },
    {
      "bufferView": 2,
      "byteOffset": 591024,
      "componentType": 5126,
      "count": 100,
      "max": [
        1.0,
        1.0,
        1.0
      ],
      "min": [
        -1.0,
        -1.0,
        -1.0
      ],
      "type": "VEC3"
    },
    {
      "bufferView": 3,
      "byteOffset": 393216,
      "componentType": 5126,
      "count": 100,
      "max": [
        1.0,
        1.0,
        1.0,
        1.0
      ],
      "min": [
        -0.9953879117965698,
        -1.0,
        -1.0,
        1.0
      ],
      "type": "VEC4"
    },
    {
      "bufferView": 1,
      "byteOffset": 196608,
      "componentType": 5126,
      "count": 100,
      "max": [
        0.9505593776702881,
        0.968348503112793
      ],
      "min": [
        0.0028151078149676323,
        0.037427663803100586
      ],
      "type": "VEC2"
    },
    {
      "bufferView": 0,
      "byteOffset": 331944,
      "componentType": 5125,
      "count": 246,
      "type": "SCALAR"
    },
    {
      "bufferView": 2,
      "byteOffset": 592224,
      "componentType": 5126,
      "count": 112,
      "max": [
        0.15255087614059448,
        1.5720469951629639,
        -0.14392799139022827
      ],
      "min": [
        -0.15255087614059448,
        1.0387544631958008,
        -0.3024581968784332
      ],
      "type": "VEC3"
    },
    {
      "bufferView": 2,
      "byteOffset": 593568,
      "componentType": 5126,
      "count": 112,
      "max": [
        0.9930861592292786,
        1.0,
        0.9999844431877136
      ],
      "min": [
        -0.9958351254463196,
        -0.999988317489624,
        -1.0
      ],
      "type": "VEC3"
    },
    {
      "bufferView": 3,
      "byteOffset": 394816,
      "componentType": 5126,
      "count": 112,
      "max": [
        0.9999734163284302,
        0.9999998211860657,
        0.9999996423721313,
        1.0
      ],
      "min": [
        -0.9999979138374329,
        -1.0,
        -1.0,
        1.0
      ],
      "type": "VEC4"
    },
    {
      "bufferView": 1,
      "byteOffset": 197408,
      "componentType": 5126,
      "count": 112,
      "max": [
        0.8087842464447021,
        0.7755557894706726
      ],
      "min": [
        0.0028363466262817383,
        0.0028196503408253193
      ],
      "type": "VEC2"
    },
    {
      "bufferView": 0,
      "byteOffset": 332928,
      "componentType": 5125,
      "count": 288,
      "type": "SCALAR"
    },
    {
      "bufferView": 2,
      "byteOffset": 594912,
      "componentType": 5126,
      "count": 102,
      "max": [
        0.09578518569469452,
        1.8641493320465088,
        -0.911426842212677
      ],
      "min": [
        -0.09578518569469452,
        1.6717182397842407,
        -1.3913905620574951
      ],
      "type": "VEC3"
    },
    {
      "bufferView": 2,
      "byteOffset": 596136,
      "componentType": 5126,
      "count": 102,
      "max": [
        1.0,
        1.0,
        0.9967500567436218
      ],
      "min": [
        -1.0,
        -1.0,
        -0.9988654851913452
      ],
      "type": "VEC3"
    },
    {
      "bufferView": 3,
      "byteOffset": 396608,
      "componentType": 5126,
      "count": 102,
      "max": [
        0.9999945759773254,
        0.9999945759773254,
        0.957905650138855,
        1.0
      ],
      "min": [
        -0.9999945759773254,
        -0.9999946355819702,
        -0.9721724390983582,
        1.0
      ],
      "type": "VEC4"
    },
    {
      "bufferView": 1,
      "byteOffset": 198304,
      "componentType": 5126,
      "count": 102,
      "max": [
        0.9870665669441223,
        0.8319611549377441
      ],
      "min": [
        0.15387651324272156,
        0.19431166350841522
      ],
      "type": "VEC2"
    },
    {
      "bufferView": 0,
      "byteOffset": 334080,
      "componentType": 5125,
      "count": 252,
      "type": "SCALAR"
    },
    {
      "bufferView": 2,
      "byteOffset": 597360,
      "componentType": 5126,
      "count": 642,
      "max": [
        0.1556013822555542,
        1.5425543785095215,
        -0.026297330856323242
      ],
      "min": [
        -0.1568032205104828,
        1.0535838603973389,
        -0.2290329933166504
      ],
      "type": "VEC3"
    },
    {
      "bufferView": 2,
      "byteOffset": 605064,
      "componentType": 5126,
      "count": 642,
      "max": [
        1.0,
        1.0,
        1.0
      ],
      "min": [
        -1.0,
        -1.0,
        -1.0
      ],
      "type": "VEC3"
    },
    {
      "bufferView": 3,
      "byteOffset": 398240,
      "componentType": 5126,
      "count": 642,
      "max": [
        0.9995149970054626,
        1.0,
        0.9999846816062927,
        1.0
      ],
      "min": [
        -0.999068558216095,
        -1.0,
        -0.9999889135360718,
        1.0
      ],
      "type": "VEC4"
    },
    {
      "bufferView": 1,
      "byteOffset": 199120,
      "componentType": 5126,
      "count": 642,
      "max": [
        0.8879397511482239,
        0.8714016675949097
      ],
      "min": [
        0.2606058716773987,
        0.030964845791459084
      ],
      "type": "VEC2"
    },
    {
      "bufferView": 0,
      "byteOffset": 335088,
      "componentType": 5125,
      "count": 2304,
      "type": "SCALAR"
    },
    {
      "bufferView": 2,
      "byteOffset": 612768,
      "componentType": 5126,
      "count": 1132,
      "max": [
        0.6163522005081177,
        2.61533260345459,
        0.6824426651000977
      ],
      "min": [
        -0.3054780960083008,
        1.0595197677612305,
        0.055600814521312714
      ],
      "type": "VEC3"
    },
    {
      "bufferView": 2,
      "byteOffset": 626352,
      "componentType": 5126,
      "count": 1132,
      "max": [
        1.0,
        1.0,
        1.0
      ],
      "min": [
        -1.0,
        -1.0,
        -1.0
      ],
      "type": "VEC3"
    },
    {
      "bufferView": 3,
      "byteOffset": 408512,
      "componentType": 5126,
      "count": 1132,
      "max": [
        1.0,
        1.0,
        1.0,
        1.0
      ],
      "min": [
        -1.0,
        -1.0,
        -1.0,
        1.0
      ],
      "type": "VEC4"
    },
    {
      "bufferView": 1,
      "byteOffset": 204256,
      "componentType": 5126,
      "count": 1132,
      "max": [
        0.9971848726272583,
        0.991635262966156
      ],
      "min": [
        0.002810568315908313,
        0.002816521329805255
      ],
      "type": "VEC2"
    },
    {
      "bufferView": 0,
      "byteOffset": 344304,
      "componentType": 5125,
      "count": 3228,
      "type": "SCALAR"
    }
  ],
  "asset": {
    "extras": {
      "author": "Diamonddogkz (https://sketchfab.com/Diamonddogkz)",
      "license": "CC-BY-SA-4.0 (http://creativecommons.org/licenses/by-sa/4.0/)",
      "source": "https://sketchfab.com/3d-models/tec-9-377b7dc278754029822563d56c1f986e",
      "title": "tec-9"
    },
    "generator": "Sketchfab-12.68.0",
    "version": "2.0"
  },
  "bufferViews": [
    {
      "buffer": 0,
      "byteLength": 357216,
      "name": "floatBufferViews",
      "target": 34963
    },
    {
      "buffer": 0,
      "byteLength": 213312,
      "byteOffset": 357216,
      "byteStride": 8,
      "name": "floatBufferViews",
      "target": 34962
    },
    {
      "buffer": 0,
      "byteLength": 639936,
      "byteOffset": 570528,
      "byteStride": 12,
      "name": "floatBufferViews",
      "target": 34962
    },
    {
      "buffer": 0,
      "byteLength": 426624,
      "byteOffset": 1210464,
      "byteStride": 16,
      "name": "floatBufferViews",
      "target": 34962
    }
  ],
  "buffers": [
    {
      "byteLength": 1637088,
      "uri": "scene.bin"
    }
  ],
  "extensionsRequired": [
    "KHR_materials_pbrSpecularGlossiness"
  ],
  "extensionsUsed": [
    "KHR_materials_pbrSpecularGlossiness"
  ],
  "images": [
    {
      "uri": "textures/Material_diffuse.png"
    },
    {
      "uri": "textures/Material_specularGlossiness.png"
    },
    {
      "uri": "textures/Material_normal.png"
    }
  ],
  "materials": [
    {
      "doubleSided": true,
      "extensions": {
        "KHR_materials_pbrSpecularGlossiness": {
          "diffuseFactor": [
            1.0,
            1.0,
            1.0,
            1.0
          ],
          "diffuseTexture": {
            "index": 0
          },
          "glossinessFactor": 1.0,
          "specularFactor": [
            1.0,
            1.0,
            1.0
          ],
          "specularGlossinessTexture": {
            "index": 1
          }
        }
      },
      "name": "Material",
      "normalTexture": {
        "index": 2
      }
    }
  ],
  "meshes": [
    {
      "name": "1_low_Material_0",
      "primitives": [
        {
          "attributes": {
            "NORMAL": 1,
            "POSITION": 0,
            "TANGENT": 2,
            "TEXCOORD_0": 3
          },
          "indices": 4,
          "material": 0,
          "mode": 4
        }
      ]
    },
    {
      "name": "2_low_Material_0",
      "primitives": [
        {
          "attributes": {
            "NORMAL": 6,
            "POSITION": 5,
            "TANGENT": 7,
            "TEXCOORD_0": 8
          },
          "indices": 9,
          "material": 0,
          "mode": 4
        }
      ]
    },
    {
      "name": "3_low_Material_0",
      "primitives": [
        {
          "attributes": {
            "NORMAL": 11,
            "POSITION": 10,
            "TANGENT": 12,
            "TEXCOORD_0": 13
          },
          "indices": 14,
          "material": 0,
          "mode": 4
        }
      ]
    },
    {
      "name": "4_low_Material_0",
      "primitives": [
        {
          "attributes": {
            "NORMAL": 16,
            "POSITION": 15,
            "TANGENT": 17,
            "TEXCOORD_0": 18
          },
          "indices": 19,
          "material": 0,
          "mode": 4
        }
      ]
    },
    {
      "name": "6_low_Material_0",
      "primitives": [
        {
          "attributes": {
            "NORMAL": 21,
            "POSITION": 20,
            "TANGENT": 22,
            "TEXCOORD_0": 23
          },
          "indices": 24,
          "material": 0,
          "mode": 4
        }
      ]
    },
    {
      "name": "8_low_Material_0",
      "primitives": [
        {
          "attributes": {
            "NORMAL": 26,
            "POSITION": 25,
            "TANGENT": 27,
            "TEXCOORD_0": 28
          },
          "indices": 29,
          "material": 0,
          "mode": 4
        }
      ]
    },
    {
      "name": "7_low_Material_0",
      "primitives": [
        {
          "attributes": {
            "NORMAL": 31,
            "POSITION": 30,
            "TANGENT": 32,
            "TEXCOORD_0": 33
          },
          "indices": 34,
          "material": 0,
          "mode": 4
        }
      ]
    },
    {
      "name": "9_low_Material_0",
      "primitives": [
        {
          "attributes": {
            "NORMAL": 36,
            "POSITION": 35,
            "TANGENT": 37,
            "TEXCOORD_0": 38
          },
          "indices": 39,
          "material": 0,
          "mode": 4
        }
      ]
    },
    {
      "name": "11_low_Material_0",
      "primitives": [
        {
          "attributes": {
            "NORMAL": 41,
            "POSITION": 40,
            "TANGENT": 42,
            "TEXCOORD_0": 43
          },
          "indices": 44,
          "material": 0,
          "mode": 4
        }
      ]
    },
    {
      "name": "12_low_Material_0",
      "primitives": [
        {
          "attributes": {
            "NORMAL": 46,
            "POSITION": 45,
            "TANGENT": 47,
            "TEXCOORD_0": 48
          },
          "indices": 49,
          "material": 0,
          "mode": 4
        }
      ]
    },
    {
      "name": "15_low_Material_0",
      "primitives": [
        {
          "attributes": {
            "NORMAL": 51,
            "POSITION": 50,
            "TANGENT": 52,
            "TEXCOORD_0": 53
          },
          "indices": 54,
          "material": 0,
          "mode": 4
        }
      ]
    },
    {
      "name": "13_low_Material_0",
      "primitives": [
        {
          "attributes": {
            "NORMAL": 56,
            "POSITION": 55,
            "TANGENT": 57,
            "TEXCOORD_0": 58
          },
          "indices": 59,
          "material": 0,
          "mode": 4
        }
      ]
    },
    {
      "name": "20_low_Material_0",
      "primitives": [
        {
          "attributes": {
            "NORMAL": 61,
            "POSITION": 60,
            "TANGENT": 62,
            "TEXCOORD_0": 63
          },
          "indices": 64,
          "material": 0,
          "mode": 4
        }
      ]
    },
    {
      "name": "16_low_Material_0",
      "primitives": [
        {
          "attributes": {
            "NORMAL": 66,
            "POSITION": 65,
            "TANGENT": 67,
            "TEXCOORD_0": 68
          },
          "indices": 69,
          "material": 0,
          "mode": 4
        }
      ]
    },
    {
      "name": "17_low_Material_0",
      "primitives": [
        {
          "attributes": {
            "NORMAL": 71,
            "POSITION": 70,
            "TANGENT": 72,
            "TEXCOORD_0": 73
          },
          "indices": 74,
          "material": 0,
          "mode": 4
        }
      ]
    },
    {
      "name": "18_low_Material_0",
      "primitives": [
        {
          "attributes": {
            "NORMAL": 76,
            "POSITION": 75,
            "TANGENT": 77,
            "TEXCOORD_0": 78
          },
          "indices": 79,
          "material": 0,
          "mode": 4
        }
      ]
    },
    {
      "name": "19_low_Material_0",
      "primitives": [
        {
          "attributes": {
            "NORMAL": 81,
            "POSITION": 80,
            "TANGENT": 82,
            "TEXCOORD_0": 83
          },
          "indices": 84,
          "material": 0,
          "mode": 4
        }
      ]
    },
    {
      "name": "14_low_Material_0",
      "primitives": [
        {
          "attributes": {
            "NORMAL": 86,
            "POSITION": 85,
            "TANGENT": 87,
            "TEXCOORD_0": 88
          },
          "indices": 89,
          "material": 0,
          "mode": 4
        }
      ]
    },
    {
      "name": "21_low_Material_0",
      "primitives": [
        {
          "attributes": {
            "NORMAL": 91,
            "POSITION": 90,
            "TANGENT": 92,
            "TEXCOORD_0": 93
          },
          "indices": 94,
          "material": 0,
          "mode": 4
        }
      ]
    },
    {
      "name": "5_low_Material_0",
      "primitives": [
        {
          "attributes": {
            "NORMAL": 96,
            "POSITION": 95,
            "TANGENT": 97,
            "TEXCOORD_0": 98
          },
          "indices": 99,
          "material": 0,
          "mode": 4
        }
      ]
    },
    {
      "name": "1_low.001_Material_0",
      "primitives": [
        {
          "attributes": {
            "NORMAL": 101,
            "POSITION": 100,
            "TANGENT": 102,
            "TEXCOORD_0": 103
          },
          "indices": 104,
          "material": 0,
          "mode": 4
        }
      ]
    },
    {
      "name": "2_low.001_Material_0",
      "primitives": [
        {
          "attributes": {
            "NORMAL": 106,
            "POSITION": 105,
            "TANGENT": 107,
            "TEXCOORD_0": 108
          },
          "indices": 109,
          "material": 0,
          "mode": 4
        }
      ]
    },
    {
      "name": "3_low.001_Material_0",
      "primitives": [
        {
          "attributes": {
            "NORMAL": 111,
            "POSITION": 110,
            "TANGENT": 112,
            "TEXCOORD_0": 113
          },
          "indices": 114,
          "material": 0,
          "mode": 4
        }
      ]
    },
    {
      "name": "4_low.002_Material_0",
      "primitives": [
        {
          "attributes": {
            "NORMAL": 116,
            "POSITION": 115,
            "TANGENT": 117,
            "TEXCOORD_0": 118
          },
          "indices": 119,
          "material": 0,
          "mode": 4
        }
      ]
    },
    {
      "name": "6_low.001_Material_0",
      "primitives": [
        {
          "attributes": {
            "NORMAL": 121,
            "POSITION": 120,
            "TANGENT": 122,
            "TEXCOORD_0": 123
          },
          "indices": 124,
          "material": 0,
          "mode": 4
        }
      ]
    },
    {
      "name": "8_low.001_Material_0",
      "primitives": [
        {
          "attributes": {
            "NORMAL": 126,
            "POSITION": 125,
            "TANGENT": 127,
            "TEXCOORD_0": 128
          },
          "indices": 129,
          "material": 0,
          "mode": 4
        }
      ]
    },
    {
      "name": "7_low.001_Material_0",
      "primitives": [
        {
          "attributes": {
            "NORMAL": 131,
            "POSITION": 130,
            "TANGENT": 132,
            "TEXCOORD_0": 133
          },
          "indices": 134,
          "material": 0,
          "mode": 4
        }
      ]
    },
    {
      "name": "9_low.001_Material_0",
      "primitives": [
        {
          "attributes": {
            "NORMAL": 136,
            "POSITION": 135,
            "TANGENT": 137,
            "TEXCOORD_0": 138
          },
          "indices": 139,
          "material": 0,
          "mode": 4
        }
      ]
    },
    {
      "name": "11_low.001_Material_0",
      "primitives": [
        {
          "attributes": {
            "NORMAL": 141,
            "POSITION": 140,
            "TANGENT": 142,
            "TEXCOORD_0": 143
          },
          "indices": 144,
          "material": 0,
          "mode": 4
        }
      ]
    },
    {
      "name": "12_low.001_Material_0",
      "primitives": [
        {
          "attributes": {
            "NORMAL": 146,
            "POSITION": 145,
            "TANGENT": 147,
            "TEXCOORD_0": 148
          },
          "indices": 149,
          "material": 0,
          "mode": 4
        }
      ]
    },
    {
      "name": "15_low.001_Material_0",
      "primitives": [
        {
          "attributes": {
            "NORMAL": 151,
            "POSITION": 150,
            "TANGENT": 152,
            "TEXCOORD_0": 153
          },
          "indices": 154,
          "material": 0,
          "mode": 4
        }
      ]
    },
    {
      "name": "13_low.001_Material_0",
      "primitives": [
        {
          "attributes": {
            "NORMAL": 156,
            "POSITION": 155,
            "TANGENT": 157,
            "TEXCOORD_0": 158
          },
          "indices": 159,
          "material": 0,
          "mode": 4
        }
      ]
    },
    {
      "name": "20_low.001_Material_0",
      "primitives": [
        {
          "attributes": {
            "NORMAL": 161,
            "POSITION": 160,
            "TANGENT": 162,
            "TEXCOORD_0": 163
          },
          "indices": 164,
          "material": 0,
          "mode": 4
        }
      ]
    },
    {
      "name": "16_low.001_Material_0",
      "primitives": [
        {
          "attributes": {
            "NORMAL": 166,
            "POSITION": 165,
            "TANGENT": 167,
            "TEXCOORD_0": 168
          },
          "indices": 169,
          "material": 0,
          "mode": 4
        }
      ]
    },
    {
      "name": "17_low.001_Material_0",
      "primitives": [
        {
          "attributes": {
            "NORMAL": 171,
            "POSITION": 170,
            "TANGENT": 172,
            "TEXCOORD_0": 173
          },
          "indices": 174,
          "material": 0,
          "mode": 4
        }
      ]
    },
    {
      "name": "18_low.001_Material_0",
      "primitives": [
        {
          "attributes": {
            "NORMAL": 176,
            "POSITION": 175,
            "TANGENT": 177,
            "TEXCOORD_0": 178
          },
          "indices": 179,
          "material": 0,
          "mode": 4
        }
      ]
    },
    {
      "name": "19_low.001_Material_0",
      "primitives": [
        {
          "attributes": {
            "NORMAL": 181,
            "POSITION": 180,
            "TANGENT": 182,
            "TEXCOORD_0": 183
          },
          "indices": 184,
          "material": 0,
          "mode": 4
        }
      ]
    },
    {
      "name": "14_low.001_Material_0",
      "primitives": [
        {
          "attributes": {
            "NORMAL": 186,
            "POSITION": 185,
            "TANGENT": 187,
            "TEXCOORD_0": 188
          },
          "indices": 189,
          "material": 0,
          "mode": 4
        }
      ]
    },
    {
      "name": "21_low.001_Material_0",
      "primitives": [
        {
          "attributes": {
            "NORMAL": 191,
            "POSITION": 190,
            "TANGENT": 192,
            "TEXCOORD_0": 193
          },
          "indices": 194,
          "material": 0,
          "mode": 4
        }
      ]
    },
    {
      "name": "5_low.002_Material_0",
      "primitives": [
        {
          "attributes": {
            "NORMAL": 196,
            "POSITION": 195,
            "TANGENT": 197,
            "TEXCOORD_0": 198
          },
          "indices": 199,
          "material": 0,
          "mode": 4
        }
      ]
    }
  ],
  "nodes": [
    {
      "children": [
        1
      ],
      "matrix": [
        1.0,
        0.0,
        0.0,
        0.0,
        0.0,
        2.220446049250313e-16,
        -1.0,
        0.0,
        0.0,
        1.0,
        2.220446049250313e-16,
        0.0,
        0.0,
        0.0,
        0.0,
        1.0
      ],
      "name": "Sketchfab_model"
    },
    {
      "children": [
        2
      ],
      "matrix": [
        1.0,
        0.0,
        0.0,
        0.0,
        0.0,
        0.0,
        1.0,
        0.0,
        0.0,
        -1.0,
        0.0,
        0.0,
        0.0,
        0.0,
        0.0,
        1.0
      ],
      "name": "3a8e63b9d4274f6c857034acf0bc239c.fbx"
    },
    {
      "children": [
        3,
        5,
        7,
        9,
        11,
        13,
        15,
        17,
        19,
        21,
        23,
        25,
        27,
        29,
        31,
        33,
        35,
        37,
        39,
        41,
        43,
        45,
        47,
        49,
        51,
        53,
        55,
        57,
        59,
        61,
        63,
        65,
        67,
        69,
        71,
        73,
        75,
        77,
        79,
        81
      ],
      "name": "RootNode"
    },
    {
      "children": [
        4
      ],
      "matrix": [
        100.0,
        0.0,
        0.0,
        0.0,
        0.0,
        -1.629206793918314e-05,
        -99.99999999999868,
        0.0,
        0.0,
        99.99999999999868,
        -1.629206793918314e-05,
        0.0,
        0.0,
        0.0,
        0.0,
        1.0
      ],
      "name": "1_low"
    },
    {
      "mesh": 0,
      "name": "1_low_Material_0"
    },
    {
      "children": [
        6
      ],
      "matrix": [
        100.0,
        0.0,
        0.0,
        0.0,
        0.0,
        -1.629206793918314e-05,
        -99.99999999999868,
        0.0,
        0.0,
        99.99999999999868,
        -1.629206793918314e-05,
        0.0,
        0.0,
        0.0,
        0.0,
        1.0
      ],
      "name": "2_low"
    },
    {
      "mesh": 1,
      "name": "2_low_Material_0"
    },
    {
      "children": [
        8
      ],
      "matrix": [
        100.0,
        0.0,
        0.0,
        0.0,
        0.0,
        -1.629206793918314e-05,
        -99.99999999999868,
        0.0,
        0.0,
        99.99999999999868,
        -1.629206793918314e-05,
        0.0,
        0.0,
        0.0,
        0.0,
        1.0
      ],
      "name": "3_low"
    },
    {
      "mesh": 2,
      "name": "3_low_Material_0"
    },
    {
      "children": [
        10
      ],
      "matrix": [
        100.0,
        0.0,
        0.0,
        0.0,
        0.0,
        -1.629206793918314e-05,
        -99.99999999999868,
        0.0,
        0.0,
        99.99999999999868,
        -1.629206793918314e-05,
        0.0,
        0.0,
        0.0,
        0.0,
        1.0
      ],
      "name": "4_low"
    },
    {
      "mesh": 3,
      "name": "4_low_Material_0"
    },
    {
      "children": [
        12
      ],
      "matrix": [
        100.0,
        0.0,
        0.0,
        0.0,
        0.0,
        -1.629206793918314e-05,
        -99.99999999999868,
        0.0,
        0.0,
        99.99999999999868,
        -1.629206793918314e-05,
        0.0,
        0.0,
        0.0,
        0.0,
        1.0
      ],
      "name": "6_low"
    },
    {
      "mesh": 4,
      "name": "6_low_Material_0"
    },
    {
      "children": [
        14
      ],
      "matrix": [
        100.0,
        0.0,
        0.0,
        0.0,
        0.0,
        -1.629206793918314e-05,
        -99.99999999999868,
        0.0,
        0.0,
        99.99999999999868,
        -1.629206793918314e-05,
        0.0,
        0.0,
        0.0,
        0.0,
        1.0
      ],
      "name": "8_low"
    },
    {
      "mesh": 5,
      "name": "8_low_Material_0"
    },
    {
      "children": [
        16
      ],
      "matrix": [
        100.0,
        0.0,
        0.0,
        0.0,
        0.0,
        -1.629206793918314e-05,
        -99.99999999999868,
        0.0,
        0.0,
        99.99999999999868,
        -1.629206793918314e-05,
        0.0,
        0.0,
        0.0,
        0.0,
        1.0
      ],
      "name": "7_low"
    },
    {
      "mesh": 6,
      "name": "7_low_Material_0"
    },
    {
      "children": [
        18
      ],
      "matrix": [
        100.0,
        0.0,
        0.0,
        0.0,
        0.0,
        -1.629206793918314e-05,
        -99.99999999999868,
        0.0,
        0.0,
        99.99999999999868,
        -1.629206793918314e-05,
        0.0,
        0.0,
        0.0,
        0.0,
        1.0
      ],
      "name": "9_low"
    },
    {
      "mesh": 7,
      "name": "9_low_Material_0"
    },
    {
      "children": [
        20
      ],
      "matrix": [
        100.0,
        0.0,
        0.0,
        0.0,
        0.0,
        -1.629206793918314e-05,
        -99.99999999999868,
        0.0,
        0.0,
        99.99999999999868,
        -1.629206793918314e-05,
        0.0,
        0.0,
        0.0,
        0.0,
        1.0
      ],
      "name": "11_low"
    },
    {
      "mesh": 8,
      "name": "11_low_Material_0"
    },
    {
      "children": [
        22
      ],
      "matrix": [
        100.0,
        0.0,
        0.0,
        0.0,
        0.0,
        -1.629206793918314e-05,
        -99.99999999999868,
        0.0,
        0.0,
        99.99999999999868,
        -1.629206793918314e-05,
        0.0,
        0.0,
        0.0,
        0.0,
        1.0
      ],
      "name": "12_low"
    },
    {
      "mesh": 9,
      "name": "12_low_Material_0"
    },
    {
      "children": [
        24
      ],
      "matrix": [
        100.0,
        0.0,
        0.0,
        0.0,
        0.0,
        -1.629206793918314e-05,
        -99.99999999999868,
        0.0,
        0.0,
        99.99999999999868,
        -1.629206793918314e-05,
        0.0,
        0.0,
        0.0,
        0.0,
        1.0
      ],
      "name": "15_low"
    },
    {
      "mesh": 10,
      "name": "15_low_Material_0"
    },
    {
      "children": [
        26
      ],
      "matrix": [
        100.0,
        0.0,
        0.0,
        0.0,
        0.0,
        -1.629206793918314e-05,
        -99.99999999999868,
        0.0,
        0.0,
        99.99999999999868,
        -1.629206793918314e-05,
        0.0,
        0.0,
        0.0,
        0.0,
        1.0
      ],
      "name": "13_low"
    },
    {
      "mesh": 11,
      "name": "13_low_Material_0"
    },
    {
      "children": [
        28
      ],
      "matrix": [
        100.0,
        0.0,
        0.0,
        0.0,
        0.0,
        -1.629206793918314e-05,
        -99.99999999999868,
        0.0,
        0.0,
        99.99999999999868,
        -1.629206793918314e-05,
        0.0,
        0.0,
        0.0,
        0.0,
        1.0
      ],
      "name": "20_low"
    },
    {
      "mesh": 12,
      "name": "20_low_Material_0"
    },
    {
      "children": [
        30
      ],
      "matrix": [
        100.0,
        0.0,
        0.0,
        0.0,
        0.0,
        -1.629206793918314e-05,
        -99.99999999999868,
        0.0,
        0.0,
        99.99999999999868,
        -1.629206793918314e-05,
        0.0,
        0.0,
        0.0,
        0.0,
        1.0
      ],
      "name": "16_low"
    },
    {
      "mesh": 13,
      "name": "16_low_Material_0"
    },
    {
      "children": [
        32
      ],
      "matrix": [
        100.0,
        0.0,
        0.0,
        0.0,
        0.0,
        -1.629206793918314e-05,
        -99.99999999999868,
        0.0,
        0.0,
        99.99999999999868,
        -1.629206793918314e-05,
        0.0,
        0.0,
        0.0,
        0.0,
        1.0
      ],
      "name": "17_low"
    },
    {
      "mesh": 14,
      "name": "17_low_Material_0"
    },
    {
      "children": [
        34
      ],
      "matrix": [
        100.0,
        0.0,
        0.0,
        0.0,
        0.0,
        -1.629206793918314e-05,
        -99.99999999999868,
        0.0,
        0.0,
        99.99999999999868,
        -1.629206793918314e-05,
        0.0,
        0.0,
        0.0,
        0.0,
        1.0
      ],
      "name": "18_low"
    },
    {
      "mesh": 15,
      "name": "18_low_Material_0"
    },
    {
      "children": [
        36
      ],
      "matrix": [
        100.0,
        0.0,
        0.0,
        0.0,
        0.0,
        -1.629206793918314e-05,
        -99.99999999999868,
        0.0,
        0.0,
        99.99999999999868,
        -1.629206793918314e-05,
        0.0,
        0.0,
        0.0,
        0.0,
        1.0
      ],
      "name": "19_low"
    },
    {
      "mesh": 16,
      "name": "19_low_Material_0"
    },
    {
      "children": [
        38
      ],
      "matrix": [
        100.0,
        0.0,
        0.0,
        0.0,
        0.0,
        -1.629206793918314e-05,
        -99.99999999999868,
        0.0,
        0.0,
        99.99999999999868,
        -1.629206793918314e-05,
        0.0,
        0.0,
        0.0,
        0.0,
        1.0
      ],
      "name": "14_low"
    },
    {
      "mesh": 17,
      "name": "14_low_Material_0"
    },
    {
      "children": [
        40
      ],
      "matrix": [
        100.0,
        0.0,
        0.0,
        0.0,
        0.0,
        -1.629206793918314e-05,
        -99.99999999999868,
        0.0,
        0.0,
        99.99999999999868,
        -1.629206793918314e-05,
        0.0,
        0.0,
        0.0,
        0.0,
        1.0
      ],
      "name": "21_low"
    },
    {
      "mesh": 18,
      "name": "21_low_Material_0"
    },
    {
      "children": [
        42
      ],
      "matrix": [
        100.0,
        0.0,
        0.0,
        0.0,
        0.0,
        -1.629206793918314e-05,
        -99.99999999999868,
        0.0,
        0.0,
        99.99999999999868,
        -1.629206793918314e-05,
        0.0,
        0.0,
        0.0,
        0.0,
        1.0
      ],
      "name": "5_low"
    },
    {
      "mesh": 19,
      "name": "5_low_Material_0"
    },
    {
      "children": [
        44
      ],
      "matrix": [
        100.0,
        0.0,
        0.0,
        0.0,
        0.0,
        -1.629206793918314e-05,
        -99.99999999999868,
        0.0,
        0.0,
        99.99999999999868,
        -1.629206793918314e-05,
        0.0,
        0.0,
        695.8712768554688,
        -974.7283935546875,
        1.0
      ],
      "name": "1_low.001"
    },
    {
      "mesh": 20,
      "name": "1_low.001_Material_0"
    },
    {
      "children": [
        46
      ],
      "matrix": [
        100.0,
        0.0,
        0.0,
        0.0,
        0.0,
        -1.629206793918314e-05,
        -99.99999999999868,
        0.0,
        0.0,
        99.99999999999868,
        -1.629206793918314e-05,
        0.0,
        0.0,
        543.2307739257813,
        -974.7283935546875,
        1.0
      ],
      "name": "2_low.001"
    },
    {
      "mesh": 21,
      "name": "2_low.001_Material_0"
    },
    {
      "children": [
        48
      ],
      "matrix": [
        100.0,
        0.0,
        0.0,
        0.0,
        0.0,
        -1.629206793918314e-05,
        -99.99999999999868,
        0.0,
        0.0,
        99.99999999999868,
        -1.629206793918314e-05,
        0.0,
        0.0,
        543.2307739257813,
        -974.7283935546875,
        1.0
      ],
      "name": "3_low.001"
    },
    {
      "mesh": 22,
      "name": "3_low.001_Material_0"
    },
    {
      "children": [
        50
      ],
      "matrix": [
        100.0,
        0.0,
        0.0,
        0.0,
        0.0,
        -1.629206793918314e-05,
        -99.99999999999868,
        0.0,
        0.0,
        99.99999999999868,
        -1.629206793918314e-05,
        0.0,
        0.0,
        543.2307739257813,
        -974.7283935546875,
        1.0
      ],
      "name": "4_low.002"
    },
    {
      "mesh": 23,
      "name": "4_low.002_Material_0"
    },
    {
      "children": [
        52
      ],
      "matrix": [
        100.0,
        0.0,
        0.0,
        0.0,
        0.0,
        -1.629206793918314e-05,
        -99.99999999999868,
        0.0,
        0.0,
        99.99999999999868,
        -1.629206793918314e-05,
        0.0,
        0.0,
        543.2307739257813,
        -974.7283935546875,
        1.0
      ],
      "name": "6_low.001"
    },
    {
      "mesh": 24,
      "name": "6_low.001_Material_0"
    },
    {
      "children": [
        54
      ],
      "matrix": [
        100.0,
        0.0,
        0.0,
        0.0,
        0.0,
        -1.629206793918314e-05,
        -99.99999999999868,
        0.0,
        0.0,
        99.99999999999868,
        -1.629206793918314e-05,
        0.0,
        0.0,
        543.2307739257813,
        -974.7283935546875,
        1.0
      ],
      "name": "8_low.001"
    },
    {
      "mesh": 25,
      "name": "8_low.001_Material_0"
    },
    {
      "children": [
        56
      ],
      "matrix": [
        100.0,
        0.0,
        0.0,
        0.0,
        0.0,
        -1.629206793918314e-05,
        -99.99999999999868,
        0.0,
        0.0,
        99.99999999999868,
        -1.629206793918314e-05,
        0.0,
        0.0,
        543.2307739257813,
        -974.7283935546875,
        1.0
      ],
      "name": "7_low.001"
    },
    {
      "mesh": 26,
      "name": "7_low.001_Material_0"
    },
    {
      "children": [
        58
      ],
      "matrix": [
        100.0,
        0.0,
        0.0,
        0.0,
        0.0,
        -1.629206793918314e-05,
        -99.99999999999868,
        0.0,
        0.0,
        99.99999999999868,
        -1.629206793918314e-05,
        0.0,
        0.0,
        543.2307739257813,
        -974.7283935546875,
        1.0
      ],
      "name": "9_low.001"
    },
    {
      "mesh": 27,
      "name": "9_low.001_Material_0"
    },
    {
      "children": [
        60
      ],
      "matrix": [
        100.0,
        0.0,
        0.0,
        0.0,
        0.0,
        -1.629206793918314e-05,
        -99.99999999999868,
        0.0,
        0.0,
        99.99999999999868,
        -1.629206793918314e-05,
        0.0,
        0.0,
        543.2307739257813,
        -974.7283935546875,
        1.0
      ],
      "name": "11_low.001"
    },
    {
      "mesh": 28,
      "name": "11_low.001_Material_0"
    },
    {
      "children": [
        62
      ],
      "matrix": [
        100.0,
        0.0,
        0.0,
        0.0,
        0.0,
        -1.629206793918314e-05,
        -99.99999999999868,
        0.0,
        0.0,
        99.99999999999868,
        -1.629206793918314e-05,
        0.0,
        0.0,
        543.2307739257813,
        -974.7283935546875,
        1.0
      ],
      "name": "12_low.001"
    },
    {
      "mesh": 29,
      "name": "12_low.001_Material_0"
    },
    {
      "children": [
        64
      ],
      "matrix": [
        100.0,
        0.0,
        0.0,
        0.0,
        0.0,
        -1.629206793918314e-05,
        -99.99999999999868,
        0.0,
        0.0,
        99.99999999999868,
        -1.629206793918314e-05,
        0.0,
        0.0,
        543.2307739257813,
        -974.7283935546875,
        1.0
      ],
      "name": "15_low.001"
    },
    {
      "mesh": 30,
      "name": "15_low.001_Material_0"
    },
    {
      "children": [
        66
      ],
      "matrix": [
        100.0,
        0.0,
        0.0,
        0.0,
        0.0,
        -1.629206793918314e-05,
        -99.99999999999868,
        0.0,
        0.0,
        99.99999999999868,
        -1.629206793918314e-05,
        0.0,
        0.0,
        141.66201782226563,
        -974.7283935546875,
        1.0
      ],
      "name": "13_low.001"
    },
    {
      "mesh": 31,
      "name": "13_low.001_Material_0"
    },
    {
      "children": [
        68
      ],
      "matrix": [
        100.0,
        0.0,
        0.0,
        0.0,
        0.0,
        -1.629206793918314e-05,
        -99.99999999999868,
        0.0,
        0.0,
        99.99999999999868,
        -1.629206793918314e-05,
        0.0,
        0.0,
        543.2307739257813,
        -974.7283935546875,
        1.0
      ],
      "name": "20_low.001"
    },
    {
      "mesh": 32,
      "name": "20_low.001_Material_0"
    },
    {
      "children": [
        70
      ],
      "matrix": [
        100.0,
        0.0,
        0.0,
        0.0,
        0.0,
        -1.629206793918314e-05,
        -99.99999999999868,
        0.0,
        0.0,
        99.99999999999868,
        -1.629206793918314e-05,
        0.0,
        0.0,
        141.66201782226563,
        -974.7283935546875,
        1.0
      ],
      "name": "16_low.001"
    },
    {
      "mesh": 33,
      "name": "16_low.001_Material_0"
    },
    {
      "children": [
        72
      ],
      "matrix": [
        100.0,
        0.0,
        0.0,
        0.0,
        0.0,
        -1.629206793918314e-05,
        -99.99999999999868,
        0.0,
        0.0,
        99.99999999999868,
        -1.629206793918314e-05,
        0.0,
        0.0,
        141.66201782226563,
        -974.7283935546875,
        1.0
      ],
      "name": "17_low.001"
    },
    {
      "mesh": 34,
      "name": "17_low.001_Material_0"
    },
    {
      "children": [
        74
      ],
      "matrix": [
        100.0,
        0.0,
        0.0,
        0.0,
        0.0,
        -1.629206793918314e-05,
        -99.99999999999868,
        0.0,
        0.0,
        99.99999999999868,
        -1.629206793918314e-05,
        0.0,
        0.0,
        141.66201782226563,
        -974.7283935546875,
        1.0
      ],
      "name": "18_low.001"
    },
    {
      "mesh": 35,
      "name": "18_low.001_Material_0"
    },
    {
      "children": [
        76
      ],
      "matrix": [
        100.0,
        0.0,
        0.0,
        0.0,
        0.0,
        -1.629206793918314e-05,
        -99.99999999999868,
        0.0,
        0.0,
        99.99999999999868,
        -1.629206793918314e-05,
        0.0,
        0.0,
        147.8169403076172,
        -974.7283935546875,
        1.0
      ],
      "name": "19_low.001"
    },
    {
      "mesh": 36,
      "name": "19_low.001_Material_0"
    },
    {
      "children": [
        78
      ],
      "matrix": [
        100.0,
        0.0,
        0.0,
        0.0,
        0.0,
        -1.629206793918314e-05,
        -99.99999999999868,
        0.0,
        0.0,
        99.99999999999868,
        -1.629206793918314e-05,
        0.0,
        0.0,
        543.2307739257813,
        -974.7283935546875,
        1.0
      ],
      "name": "14_low.001"
    },
    {
      "mesh": 37,
      "name": "14_low.001_Material_0"
    },
    {
      "children": [
        80
      ],
      "matrix": [
        100.0,
        0.0,
        0.0,
        0.0,
        0.0,
        -1.629206793918314e-05,
        -99.99999999999868,
        0.0,
        0.0,
        99.99999999999868,
        -1.629206793918314e-05,
        0.0,
        0.0,
        181.61880493164063,
        -974.7283935546875,
        1.0
      ],
      "name": "21_low.001"
    },
    {
      "mesh": 38,
      "name": "21_low.001_Material_0"
    },
    {
      "children": [
        82
      ],
      "matrix": [
        100.0,
        0.0,
        0.0,
        0.0,
        0.0,
        -1.629206793918314e-05,
        -99.99999999999868,
        0.0,
        0.0,
        99.99999999999868,
        -1.629206793918314e-05,
        0.0,
        0.0,
        840.3635864257813,
        -974.7283935546875,
        1.0
      ],
      "name": "5_low.002"
    },
    {
      "mesh": 39,
      "name": "5_low.002_Material_0"
    }
  ],
  "samplers": [
    {
      "magFilter": 9729,
      "minFilter": 9987,
      "wrapS": 10497,
      "wrapT": 10497
    }
  ],
  "scene": 0,
  "scenes": [
    {
      "name": "Sketchfab_Scene",
      "nodes": [
        0
      ]
    }
  ],
  "textures": [
    {
      "sampler": 0,
      "source": 0
    },
    {
      "sampler": 0,
      "source": 1
    },
    {
      "sampler": 0,
      "source": 2
    }
  ]
}
